<svg xmlns="http://www.w3.org/2000/svg" width="267.595" height="47" viewBox="0 0 267.595 47">
  <g id="グループ_471" data-name="グループ 471" transform="translate(654.5 383)">
    <g id="グループ_470" data-name="グループ 470" transform="translate(-802.96 -611.815)">
      <g id="グループ_17" data-name="グループ 17">
        <g id="グループ_16" data-name="グループ 16">
          <g id="グループ_15" data-name="グループ 15">
            <path id="パス_165" data-name="パス 165" d="M177.79,267.44a3.375,3.375,0,0,1-2.26,3.09,3.221,3.221,0,0,1-1.12.2H153.34a3.376,3.376,0,0,1-3.38-3.38V260.9" fill="none" stroke="#ffd800" stroke-linecap="round" stroke-miterlimit="10" stroke-width="3"/>
            <path id="パス_166" data-name="パス 166" d="M149.96,248.77v-4.49a3.382,3.382,0,0,1,3.38-3.38h21.07a3.38,3.38,0,0,1,3.38,3.38" fill="none" stroke="#ffd800" stroke-linecap="round" stroke-miterlimit="10" stroke-width="3"/>
            <path id="パス_167" data-name="パス 167" d="M182.71,268.55l-1.88.85a2.15,2.15,0,0,1-3.04-1.96V242.45a2.161,2.161,0,0,1,1.32-1.99l6.78-2.81a2.152,2.152,0,0,1,2.98,1.99v24.72a2.154,2.154,0,0,1-1.26,1.96l-.42.19" fill="none" stroke="#1c4d50" stroke-linecap="round" stroke-miterlimit="10" stroke-width="3"/>
            <path id="パス_168" data-name="パス 168" d="M175.45,270.55l.08-.02,3.74-.75" fill="none" stroke="#ffd800" stroke-linecap="round" stroke-miterlimit="10" stroke-width="3"/>
            <line id="線_5" data-name="線 5" y1="0.44" x2="4.7" transform="translate(174.41 240.46)" fill="none" stroke="#ffd800" stroke-linecap="round" stroke-miterlimit="10" stroke-width="3"/>
          </g>
        </g>
      </g>
      <text id="moolike" transform="translate(212.055 263.815)" fill="#1c4d50" font-size="46" font-family="YikesMedium, Yikes" letter-spacing="0.12em"><tspan x="0" y="0">moolike</tspan></text>
    </g>
  </g>
</svg>
